<svg viewBox="0 0 680 380" xmlns="http://www.w3.org/2000/svg" role="img" aria-label="Ilustración abstracta de la era industrial: siluetas de chimeneas y formas geométricas repetitivas representando producción en serie">
<rect width="680" height="380" fill="#EFEAE5"/>
<rect x="0" y="280" width="680" height="100" fill="#C7BEB5"/>
<g opacity="0.9">
<rect x="100" y="160" width="26" height="120" fill="#6B5D52"/>
<rect x="150" y="120" width="26" height="160" fill="#6B5D52"/>
<rect x="200" y="180" width="26" height="100" fill="#6B5D52"/>
</g>
<g opacity="0.35">
<ellipse cx="113" cy="150" rx="18" ry="22" fill="#9A8C7E"/>
<ellipse cx="163" cy="105" rx="20" ry="24" fill="#9A8C7E"/>
<ellipse cx="213" cy="168" rx="16" ry="20" fill="#9A8C7E"/>
</g>
<g>
<rect x="380" y="220" width="40" height="40" rx="4" fill="#C0533A" opacity="0.85"/>
<rect x="430" y="220" width="40" height="40" rx="4" fill="#C0533A" opacity="0.85"/>
<rect x="480" y="220" width="40" height="40" rx="4" fill="#C0533A" opacity="0.85"/>
<rect x="530" y="220" width="40" height="40" rx="4" fill="#C0533A" opacity="0.85"/>
<rect x="380" y="270" width="40" height="40" rx="4" fill="#C0533A" opacity="0.6"/>
<rect x="430" y="270" width="40" height="40" rx="4" fill="#C0533A" opacity="0.6"/>
<rect x="480" y="270" width="40" height="40" rx="4" fill="#C0533A" opacity="0.6"/>
<rect x="530" y="270" width="40" height="40" rx="4" fill="#C0533A" opacity="0.6"/>
</g>
<circle cx="590" cy="70" r="30" fill="#D9CBAE" opacity="0.7"/>
</svg>
